<?xml version="1.0" encoding="iso-8859-1"?><svg width="240" height="240" viewBox="0 0 240 240" xmlns="http://www.w3.org/2000/svg" xmlns:xlink="http://www.w3.org/1999/xlink"><svg width="120" height="120" viewBox="0 0 58 58" id="svg--calendar" xmlns="http://www.w3.org/2000/svg"><path d="M42.899 4.5A5.009 5.009 0 0 0 38 .5a1 1 0 1 0 0 2c1.654 0 3 1.346 3 3s-1.346 3-3 3a1 1 0 1 0 0 2 5.01 5.01 0 0 0 4.899-4H56v7H2v-7h17a1 1 0 1 0 0-2h-1.816A2.995 2.995 0 0 1 20 2.5c1.654 0 3 1.346 3 3s-1.346 3-3 3a1 1 0 1 0 0 2c2.757 0 5-2.243 5-5s-2.243-5-5-5a5.01 5.01 0 0 0-4.899 4H0v53h58v-53H42.899zM30 15.5h12v12H30v-12zm12 26H30v-12h12v12zm-26-12h12v12H16v-12zm0-14h12v12H16v-12zm-14 1v-1h12v12H2v-11zm0 13h12v12H2v-12zm0 26v-12h12v12H2zm14 0v-12h12v12H16zm14 0v-12h12v12H30zm26 0H44v-12h12v12zm0-14H44v-12h12v12zm-12-14v-12h12v12H44z"/><path d="M26 2.5c1.654 0 3 1.346 3 3s-1.346 3-3 3a1 1 0 1 0 0 2c2.757 0 5-2.243 5-5s-2.243-5-5-5a1 1 0 1 0 0 2z"/><path d="M32 2.5c1.654 0 3 1.346 3 3s-1.346 3-3 3a1 1 0 1 0 0 2c2.757 0 5-2.243 5-5s-2.243-5-5-5a1 1 0 1 0 0 2zM31.293 40.207a.997.997 0 0 0 1.414 0L36 36.914l3.293 3.293a.997.997 0 0 0 1.414 0 .999.999 0 0 0 0-1.414L37.414 35.5l3.293-3.293a.999.999 0 1 0-1.414-1.414L36 34.086l-3.293-3.293a.999.999 0 1 0-1.414 1.414l3.293 3.293-3.293 3.293a.999.999 0 0 0 0 1.414z"/></svg><svg width="32" height="32" viewBox="0 0 511.626 511.626" id="svg--envelope" x="200" y="120" xmlns="http://www.w3.org/2000/svg"><path d="M49.106 178.729c6.472 4.567 25.981 18.131 58.528 40.685 32.548 22.554 57.482 39.92 74.803 52.099 1.903 1.335 5.946 4.237 12.131 8.71 6.186 4.476 11.326 8.093 15.416 10.852 4.093 2.758 9.041 5.852 14.849 9.277 5.806 3.422 11.279 5.996 16.418 7.7 5.14 1.718 9.898 2.569 14.275 2.569h.575c4.377 0 9.137-.852 14.277-2.569 5.137-1.704 10.615-4.281 16.416-7.7 5.804-3.429 10.752-6.52 14.845-9.277 4.093-2.759 9.229-6.376 15.417-10.852 6.184-4.477 10.232-7.375 12.135-8.71 17.508-12.179 62.051-43.11 133.615-92.79 13.894-9.703 25.502-21.411 34.827-35.116 9.332-13.699 13.993-28.07 13.993-43.105 0-12.564-4.523-23.319-13.565-32.264-9.041-8.947-19.749-13.418-32.117-13.418H45.679c-14.655 0-25.933 4.948-33.832 14.844C3.949 79.562 0 91.934 0 106.779c0 11.991 5.236 24.985 15.703 38.974 10.466 13.99 21.604 24.983 33.403 32.976z" data-original="#000000" class="bactive-path" data-old_color="#488da6" fill="#488da6"/><path d="M483.072 209.275c-62.424 42.251-109.824 75.087-142.177 98.501-10.849 7.991-19.65 14.229-26.409 18.699-6.759 4.473-15.748 9.041-26.98 13.702-11.228 4.668-21.692 6.995-31.401 6.995h-.578c-9.707 0-20.177-2.327-31.405-6.995-11.228-4.661-20.223-9.229-26.98-13.702-6.755-4.47-15.559-10.708-26.407-18.699-25.697-18.842-72.995-51.68-141.896-98.501C17.987 202.047 8.375 193.762 0 184.437v226.685c0 12.57 4.471 23.319 13.418 32.265 8.945 8.949 19.701 13.422 32.264 13.422h420.266c12.56 0 23.315-4.473 32.261-13.422 8.949-8.949 13.418-19.694 13.418-32.265V184.437c-8.186 9.132-17.7 17.417-28.555 24.838z" data-original="#000000" class="bactive-path" data-old_color="#488da6" fill="#488da6"/></svg><svg width="30" height="30" viewBox="0 0 460.298 460.297" id="svg--home-nav" x="152" y="160" xmlns="http://www.w3.org/2000/svg"><path d="M230.149 120.939L65.986 256.274c0 .191-.048.472-.144.855-.094.38-.144.656-.144.852v137.041c0 4.948 1.809 9.236 5.426 12.847 3.616 3.613 7.898 5.431 12.847 5.431h109.63V303.664h73.097v109.64h109.629c4.948 0 9.236-1.814 12.847-5.435 3.617-3.607 5.432-7.898 5.432-12.847V257.981c0-.76-.104-1.334-.288-1.707L230.149 120.939z" data-original="#000000" class="cactive-path" data-old_color="#ffffff" fill="#fff"/><path d="M457.122 225.438L394.6 173.476V56.989c0-2.663-.856-4.853-2.574-6.567-1.704-1.712-3.894-2.568-6.563-2.568h-54.816c-2.666 0-4.855.856-6.57 2.568-1.711 1.714-2.566 3.905-2.566 6.567v55.673l-69.662-58.245c-6.084-4.949-13.318-7.423-21.694-7.423-8.375 0-15.608 2.474-21.698 7.423L3.172 225.438c-1.903 1.52-2.946 3.566-3.14 6.136-.193 2.568.472 4.811 1.997 6.713l17.701 21.128c1.525 1.712 3.521 2.759 5.996 3.142 2.285.192 4.57-.476 6.855-1.998L230.149 95.817l197.57 164.741c1.526 1.328 3.521 1.991 5.996 1.991h.858c2.471-.376 4.463-1.43 5.996-3.138l17.703-21.125c1.522-1.906 2.189-4.145 1.991-6.716-.195-2.563-1.242-4.609-3.141-6.132z" data-original="#000000" class="cactive-path" data-old_color="#ffffff" fill="#fff"/></svg><svg width="120" height="120" viewBox="0 0 60 60" id="svg--house" x="120" xmlns="http://www.w3.org/2000/svg"><path d="M14 36.182h14v-10H14v10zm2-2v-3h10v3H16zm10-6v1H16v-1h10zM14 40.182v12h14v-12H14zm6 2v3h-4v-3h4zm-4 5h4v3h-4v-3zm6 3v-3h4v3h-4zm4-5h-4v-3h4v3zM32 36.182h14v-10H32v10zm2-2v-1h10v1H34zm10-6v3H34v-3h10z"/><path d="M59 48.182a1 1 0 0 0-1 1v1h-1v-1a1 1 0 1 0-2 0v1h-1V29.978a3.975 3.975 0 0 0 1.626.363 4.01 4.01 0 0 0 3.984-4.322 4.017 4.017 0 0 0-1.522-2.833L32.722 3.345 30 .818 27.343 3.29 1.913 23.186a4.01 4.01 0 0 0-1.522 2.833 4.01 4.01 0 0 0 1.057 3.038 3.968 3.968 0 0 0 4.553.922v20.204H5v-1a1 1 0 1 0-2 0v1H2v-1a1 1 0 1 0-2 0v9a1 1 0 1 0 2 0v-1h1v1a1 1 0 1 0 2 0v-1h1v2h48v-2h1v1a1 1 0 1 0 2 0v-1h1v1a1 1 0 1 0 2 0v-9a1 1 0 0 0-1-1.001zM2.912 27.695a1.977 1.977 0 0 1-.527-1.518 1.975 1.975 0 0 1 .761-1.416L28.64 4.811l1.361-1.265 1.424 1.319 25.43 19.896c.446.349.716.852.761 1.416a1.979 1.979 0 0 1-.527 1.518 1.99 1.99 0 0 1-2.686.223l-.403-.31-24-18.5-23.61 18.2-.001.001-.791.609a1.99 1.99 0 0 1-2.686-.223zM2 55.182v-3h1v3H2zm3 0v-3h1v3H5zm29 2v-15h10v15H34zm18 0h-6v-17H32v17H8V28.591l22-16.959 22 16.959v28.591zm2-2v-3h1v3h-1zm3 0v-3h1v3h-1z"/></svg><svg viewBox="0 0 58 58" width="40" height="40" id="svg--play-button-left" x="120" y="120" xmlns="http://www.w3.org/2000/svg"><g transform="matrix(-1 0 0 1 58 0)"><circle cx="29" cy="29" r="29" data-original="#EBBA16" class="eactive-path" data-old_color="#EBBA16" fill="#fff"/><path data-original="#FFFFFF" data-old_color="#FFFFFF" d="M44 29L22 44V14z"/><path d="M22 45a.999.999 0 0 1-1-1V14a.999.999 0 0 1 1.564-.826l22 15a1.001 1.001 0 0 1-.001 1.652l-22 15A1.002 1.002 0 0 1 22 45zm1-29.107v26.215L42.225 29 23 15.893z" data-original="#FFFFFF" data-old_color="#FFFFFF"/></g></svg><svg viewBox="0 0 58 58" width="40" height="40" id="svg--play-button-right" x="160" y="120" xmlns="http://www.w3.org/2000/svg"><circle cx="29" cy="29" r="29" data-original="#EBBA16" class="factive-path" data-old_color="#000000" fill="#fff"/><path data-original="#FFFFFF" data-old_color="#221F1F" d="M44 29L22 44V14z"/><path d="M22 45a.999.999 0 0 1-1-1V14a.999.999 0 0 1 1.564-.826l22 15a1.001 1.001 0 0 1-.001 1.652l-22 15A1.002 1.002 0 0 1 22 45zm1-29.107v26.215L42.225 29 23 15.893z" data-original="#FFFFFF" data-old_color="#221F1F"/></svg><svg width="120" height="120" viewBox="0 0 60 60" id="svg--stopwatch" y="120" xmlns="http://www.w3.org/2000/svg"><path d="M31.634 37.989a3.558 3.558 0 0 0 2.606-1.459l9.363-12.944a1 1 0 0 0-1.397-1.397L29.26 31.555c-.844.614-1.375 1.563-1.456 2.604s.296 2.06 1.033 2.797a3.554 3.554 0 0 0 2.797 1.033zm-1.836-3.674a1.56 1.56 0 0 1 .637-1.142l7.897-5.713-5.711 7.895a1.565 1.565 0 0 1-2.371.187 1.564 1.564 0 0 1-.452-1.227z"/><path d="M54.034 19.564c-.01-.021-.01-.043-.021-.064-.012-.02-.031-.031-.044-.05a27.185 27.185 0 0 0-3.565-4.809l2.148-2.147 1.414 1.414 4.242-4.243-4.242-4.242-4.243 4.242 1.415 1.415-2.148 2.147a27.154 27.154 0 0 0-4.809-3.566c-.019-.013-.03-.032-.05-.044-.021-.012-.043-.011-.064-.022a26.81 26.81 0 0 0-10.273-3.404V5h1.5c1.379 0 2.5-1.121 2.5-2.5S36.672 0 35.293 0h-9c-1.379 0-2.5 1.121-2.5 2.5s1.121 2.5 2.5 2.5h1.5v1.156c-1.08.115-2.158.291-3.224.535a1 1 0 1 0 .447 1.949 25.43 25.43 0 0 1 2.78-.477l1.073-.083c.328-.025.63-.043.924-.057V10a1 1 0 1 0 2 0V8.03a24.805 24.805 0 0 1 10.456 2.845l-.986 1.707a1 1 0 0 0 1.732 1l.983-1.703a25.194 25.194 0 0 1 7.772 7.772l-1.703.983a1 1 0 0 0 1.002 1.732l1.707-.986a24.82 24.82 0 0 1 2.849 10.619H53.63a1 1 0 1 0 0 2h1.975a24.82 24.82 0 0 1-2.849 10.619l-1.707-.986a1 1 0 0 0-1 1.732l1.703.983a25.194 25.194 0 0 1-7.772 7.772l-.983-1.703a.998.998 0 0 0-1.366-.366.999.999 0 0 0-.366 1.366l.986 1.707a24.805 24.805 0 0 1-10.456 2.845V56a1 1 0 1 0-2 0v1.976a25.235 25.235 0 0 1-4.776-.617.996.996 0 0 0-1.198.751 1 1 0 0 0 .751 1.198c1.996.46 4.035.692 6.058.692.049 0 .096-.003.145-.004.007 0 .012.004.018.004.008 0 .015-.005.023-.005a26.825 26.825 0 0 0 13.219-3.573c.031-.014.064-.021.094-.039.02-.012.031-.031.05-.044a27.197 27.197 0 0 0 9.773-9.761c.019-.027.043-.048.06-.078.012-.021.011-.043.021-.064C56.317 42.476 57.63 37.89 57.63 33s-1.313-9.476-3.596-13.436zm-.069-11.313l1.414 1.414-1.414 1.415-1.415-1.415 1.415-1.414zm-24.172-2.23V3h-3.5c-.275 0-.5-.225-.5-.5s.225-.5.5-.5h9c.275 0 .5.225.5.5s-.225.5-.5.5h-3.5v3.021c-.348-.014-.68-.021-1-.021l-.088.002L30.63 6c-.164 0-.328.011-.492.014-.116.003-.225.002-.345.007zM21.793 14h-5a1 1 0 1 0 0 2h5a1 1 0 1 0 0-2zM21.793 21h-10a1 1 0 1 0 0 2h10a1 1 0 1 0 0-2zM21.793 28h-15a1 1 0 1 0 0 2h15a1 1 0 1 0 0-2zM21.793 35h-19a1 1 0 1 0 0 2h19a1 1 0 1 0 0-2zM21.793 42h-13a1 1 0 1 0 0 2h13a1 1 0 1 0 0-2zM21.793 49h-7a1 1 0 1 0 0 2h7a1 1 0 1 0 0-2z"/></svg><svg width="32" height="32" viewBox="0 0 438.536 438.536" id="svg--telephone-symbol-button" x="120" y="160" xmlns="http://www.w3.org/2000/svg"><path d="M414.41 24.123C398.333 8.042 378.963 0 356.315 0H82.228C59.58 0 40.21 8.042 24.126 24.123 8.045 40.207.003 59.576.003 82.225v274.084c0 22.647 8.042 42.018 24.123 58.102 16.084 16.084 35.454 24.126 58.102 24.126h274.084c22.648 0 42.018-8.042 58.095-24.126 16.084-16.084 24.126-35.454 24.126-58.102V82.225c-.001-22.649-8.043-42.021-24.123-58.102zm-55.251 308.751c-3.997 8.754-12.99 16.371-26.977 22.846-13.99 6.475-26.413 9.712-37.265 9.712-3.046 0-6.283-.235-9.708-.711-3.426-.479-6.324-.952-8.703-1.428-2.378-.476-5.523-1.331-9.421-2.57-3.905-1.234-6.715-2.189-8.422-2.854-1.718-.664-4.856-1.854-9.421-3.566-4.569-1.718-7.427-2.765-8.562-3.138-31.215-11.427-61.721-32.028-91.507-61.814-29.786-29.793-50.391-60.292-61.812-91.502-.378-1.143-1.425-3.999-3.14-8.565a952.564 952.564 0 0 0-3.571-9.419c-.662-1.713-1.615-4.521-2.853-8.42-1.237-3.903-2.091-7.041-2.568-9.423-.478-2.376-.95-5.277-1.427-8.704-.476-3.427-.713-6.667-.713-9.71 0-10.85 3.237-23.269 9.71-37.259 6.472-13.988 14.084-22.981 22.841-26.979 10.088-4.189 19.7-6.283 28.837-6.283 2.091 0 3.616.192 4.565.572.953.385 2.524 2.094 4.714 5.14 2.19 3.046 4.568 6.899 7.137 11.563 2.57 4.665 5.092 9.186 7.566 13.562a601.267 601.267 0 0 1 7.139 12.991c2.284 4.279 3.711 6.995 4.281 8.133.571.957 1.809 2.762 3.711 5.429 1.902 2.663 3.333 5.039 4.283 7.135.95 2.094 1.427 4.093 1.427 5.996 0 2.859-1.953 6.331-5.854 10.42-3.903 4.093-8.186 7.854-12.85 11.281s-8.945 7.092-12.847 10.994c-3.899 3.899-5.852 7.087-5.852 9.562 0 1.333.333 2.902 1 4.71.666 1.812 1.285 3.287 1.856 4.427.571 1.141 1.477 2.76 2.712 4.856 1.237 2.096 2.048 3.427 2.426 3.999 10.467 18.843 22.508 35.07 36.114 48.681 13.612 13.613 29.836 25.648 48.682 36.117.567.384 1.902 1.191 4.004 2.43 2.091 1.232 3.713 2.136 4.853 2.707 1.143.571 2.614 1.191 4.425 1.852 1.811.664 3.381.999 4.719.999 3.036 0 7.225-3.138 12.56-9.418a976.681 976.681 0 0 1 16.276-18.705c5.516-6.181 9.985-9.274 13.418-9.274 1.902 0 3.897.473 5.999 1.424 2.095.951 4.469 2.382 7.132 4.284 2.669 1.91 4.476 3.142 5.428 3.721l15.125 8.271c10.089 5.332 18.511 10.041 25.27 14.134s10.424 6.899 10.996 8.419c.379.951.564 2.478.564 4.572-.007 9.128-2.102 18.741-6.297 28.803z" data-original="#000000" class="hactive-path" data-old_color="#488da6" fill="#488da6"/></svg></svg>